# xmcd
#
# Track frame offsets: 
#        150
#        36005
#        59392
#        97875
#        140370
#        162445
#        200177
#        227510
#        258417
#        291455
#        316217
#
# Disc length: 4729 seconds
#
# Revision: 1
# Processed by: cddbd v1.5.1PL2 Copyright (c) Steve Scherf et al.
# Submitted via: ExactAudioCopy v0.95b4
#
DISCID=9d12770b
DTITLE=Harold Mabern - Wailin' 
DYEAR=1969
DGENRE=Jazz
TTITLE0=Strozier's Mode
TTITLE1=Blues For Phineas
TTITLE2=I Can't Understand What I See In You
TTITLE3=Waltzing Westward
TTITLE4=A Time For Love
TTITLE5=Greasy Kid Stuff
TTITLE6=I Haven't Got Anything Better To Do
TTITLE7=XKE
TTITLE8=Alex The Great
TTITLE9=I Want You Back
TTITLE10=John Neely-Beautiful People
EXTD=YEAR: 1969
EXTT0=
EXTT1=
EXTT2=
EXTT3=
EXTT4=
EXTT5=
EXTT6=
EXTT7=
EXTT8=
EXTT9=
EXTT10=
PLAYORDER=
